<?xml version="1.0" encoding="utf-8"?>
<!-- Generator: Adobe Illustrator 24.0.1, SVG Export Plug-In . SVG Version: 6.00 Build 0)  -->
<svg version="1.1" id="Layer_1" xmlns="http://www.w3.org/2000/svg" xmlns:xlink="http://www.w3.org/1999/xlink" x="0px" y="0px"
	 viewBox="0 0 350 471.5" style="enable-background:new 0 0 350 471.5;" xml:space="preserve">
<style type="text/css">
	.st0{fill:#0F0E0F;}
	.st1{fill:#0F0E0F;stroke:#E1E8EB;stroke-miterlimit:10;}
	.st2{fill:none;stroke:#E1E8EB;stroke-miterlimit:10;}
	.st3{fill:#E1E8EB;stroke:#E1E8EB;stroke-miterlimit:10;}
	.st4{fill:#52FFB8;stroke:#52FFB8;stroke-miterlimit:10;}
	.st5{fill:#A862FD;stroke:#A862FD;stroke-miterlimit:10;}
</style>
<title>avatar</title>
<path class="st0" d="M13.5,274.4c15.5-5.1,25-13,29.8-23.6c3.3-7.3,4.4-15.9,3.7-25.9c-0.4-5.4-1.3-11.1-2.7-17.2
	c-1.2-5.6-2.8-11.4-4.8-17.7l130.7,40.8l2.6,25.3l1.8,7.2l2.8,5.7L142.9,325l-33,14.9l-55.4-3.6l-35.2-35.7L9,280.3l4.6-5.9"/>
<path class="st1" d="M34.7,182.3l-0.4,2.1c-2.7,0.9-8.2,1.5-11.4,1.2C5.4,170.2-0.7,131.9,6,121.3l8.3-4.7"/>
<path class="st1" d="M88.4,0.5c34.3-1.3,63.3,13.7,73.7,34.2c30.1,62,27,128.7,16.4,173.4c-15.4,73.3-89.5,48.3-122.4,15.4
	C33.7,187,24.6,157.8,12.5,115.4C-4.2,40.4,20.6,6.9,88.4,0.5z"/>
<polyline class="st0" points="266,262.6 273.4,299 294.7,297.7 288,270.6 "/>
<path class="st2" d="M170.3,230.8l2.4,23.4c0.5,4.9,2,9.6,4.4,13.9c0.3,0.5,0.5,1,0.5,1.3"/>
<path class="st1" d="M311.8,349.6l-13.1,73.9l-278.9,48l-19.4-33V276.7l13.1-2.3c7.8,14.2,17,24.8,32,37.4c3.2,2.7,9.8,6.3,9.9,6.4
	c33.4,18.7,56.2,12.8,87.4,6.8"/>
<path class="st1" d="M266.6,262.4c-47.5-11-127.1,14.9-137.8,27.6l54.5,135.1c3,1.6,74.3-10.7,78.6-11l5.1-4.1l3.2-38.3l14.9-16.9
	l-0.5,0.5"/>
<path class="st1" d="M349.3,284.6c0.1,22.9,0.1,71,0.1,93.3c-15-1-37.8-2.3-52.8-2c-2.3-6.8-8.9-18-14.4-25
	c-0.4-2.2-0.9-4.9-1.3-7.2l2.9-8.9"/>
<path class="st1" d="M331.5,326.6c-29.3-2.4-38.3,5.7-51.9,9.7c-2.8-2.9-2.8-2.9-6.8-7.5c-0.1-14.3-0.1-15.7-0.1-17.4
	c0.1-5.8,0.8-14.4,3.6-25.3c13.3-6.3,23.5-8.7,32.6-8.9c18.8-0.5,33.3,4.3,40.4,7.5"/>
<path class="st2" d="M331.5,303.3c-18-7.1-42.3,1.3-58.7,9.2"/>
<path class="st2" d="M324,333.4"/>
<path class="st2" d="M272.8,343"/>
<path class="st1" d="M266.6,262.4c7.8-26.2,35.1-1.1,37.9,14.9c-3.6-0.8-10.3,1.2-13.8,3l-2.8-9.9
	C284.2,268.8,270,263.2,266.6,262.4z"/>
<path class="st3" d="M27.7,179.2c-2.8,4-0.8,10.9,4.3,13.3c0.6-0.2,1.7-0.1,3.4-1.2c0.5-1.4,0.2-5.1-0.8-7.7l-0.2,1l-1.7,0.4l1.1,3
	l-1.6,1.2c-2.6-1.5-2-4.5-2.4-8.9L27.7,179.2z"/>
<path class="st2" d="M123.8,83.9c7.3,16.6,22.3,49.9,29.9,66L142,161.4l-18.2-8.2V83.9"/>
<path class="st2" d="M100.9,80.4l3.9,9.6C73,83.7,52,86.7,41.6,109.3C47.7,75.6,78.5,76.9,100.9,80.4z"/>
<path class="st2" d="M144.3,77.8l-3.8,9.9c13.7-7.1,27.8-17.9,38.5-2.6l-2.2-9.4C164.6,64.7,153,71.7,144.3,77.8z"/>
<path class="st3" d="M75.7,114.2l1.3,4.2c1.8,0.7,0.6,1.4,3.9,1.5l1.6-1.2c0.9-3.6,0.8-13.6-4.5-15.1l-1.9,0.4l-1.3,1.9
	C74.4,107.4,75.4,112.2,75.7,114.2z"/>
<path class="st3" d="M150.6,106l1.3,3.9c1.1,0.2,0.5,1.3,3.8,1.4l1.5-1.1c0.9-3.5,0.9-12.7-4.3-14.2l-1.8,0.4l-1.2,1.8
	C149.6,99.7,150.3,103.9,150.6,106z"/>
<path class="st2" d="M58.9,113.1c7.8-18,27-16.1,37.8-8.2"/>
<path class="st2" d="M140.5,102.8c6.8-14,26.1-16.2,31.9-2.5"/>
<path class="st2" d="M166.8,177.8c-18.7,8.5-41.9,13.5-62.4,14"/>
<path class="st2" d="M13.2,117.8l34.5,58.8l31.2,9.3l9.7,31.6l8.1-4.4l8.1,14h30.7l7.5-13.6l13.4,11.4l9.3-4.8l2.1-20.5
	c12-7.8,14.3-23.3,17.1-31.4"/>
<path class="st2" d="M131.6,165.1l11.5,2.2l6.8-4.7c4,3.1,13.5,5.5,18.7,6l2.9,4c-3.9,0.9-18.1,1.3-20.4,1.7
	c-1.5,1.6-3.9,4.3-5.4,5.9l-11.1-2.5c-11,7.3-27.3,9.1-41.6,12.3c1.1-2.1,2-4.1,3-6.1C107.2,179.3,123.3,176,131.6,165.1z"/>
<polygon class="st2" points="125.3,200.3 143,213.5 157.4,192.9 147.5,199.3 "/>
<path class="st2" d="M72.9,236.3"/>
<path class="st2" d="M86,209.1"/>
<path class="st2" d="M100.9,220.4"/>
<path class="st2" d="M82.7,241.5"/>
<path class="st2" d="M96.7,213.1"/>
<path class="st2" d="M96.7,249"/>
<path class="st2" d="M104.8,227.1"/>
<path class="st2" d="M110.5,253"/>
<path class="st2" d="M118.4,227.1"/>
<path class="st2" d="M125.3,256.2"/>
<path class="st2" d="M132.3,227.1"/>
<path class="st2" d="M160.7,244.3"/>
<path class="st2" d="M165.6,219.8"/>
<path class="st2" d="M150.5,250.8"/>
<path class="st2" d="M156.1,224.9"/>
<path class="st2" d="M170.6,233.4"/>
<path class="st2" d="M176.8,190.7"/>
<path class="st2" d="M141.1,211.7"/>
<path class="st2" d="M153.4,194.4"/>
<path class="st2" d="M160.1,175.8"/>
<path class="st2" d="M162.9,168.6"/>
<path class="st2" d="M152.4,177.4"/>
<path class="st2" d="M156.1,168.2"/>
<path class="st2" d="M143,180.7"/>
<path class="st2" d="M150.9,163.3"/>
<path class="st2" d="M137.3,178.2"/>
<path class="st2" d="M142.7,165.8"/>
<path class="st2" d="M127.9,181.6"/>
<path class="st2" d="M135,165.6"/>
<path class="st2" d="M118.3,184.2"/>
<path class="st2" d="M122.3,175"/>
<path class="st2" d="M109.9,186.4"/>
<path class="st2" d="M113.8,177.6"/>
<path class="st2" d="M100.9,188.2"/>
<path class="st2" d="M104.2,180.7"/>
<path class="st2" d="M76.3,115.7"/>
<path class="st2" d="M79.3,104.8"/>
<path class="st2" d="M79.3,120.2"/>
<path class="st2" d="M82.2,109.3"/>
<path class="st2" d="M149.5,104.8"/>
<path class="st2" d="M152.4,94"/>
<path class="st2" d="M156.9,102.8"/>
<path class="st2" d="M157.6,107.8"/>
<path class="st2" d="M149.8,98.1"/>
<path class="st2" d="M153.2,111.4"/>
<path class="st2" d="M156.1,100.5"/>
<path class="st2" d="M156.1,110.4"/>
<path class="st2" d="M150.3,104.1"/>
<path class="st2" d="M82.6,111.9"/>
<path class="st2" d="M77.3,103.9"/>
<path class="st2" d="M83,117.8"/>
<path class="st2" d="M74.9,105.9"/>
<path class="st2" d="M80.2,119.5"/>
<path class="st2" d="M75.3,112.1"/>
<path class="st2" d="M333.5,349.6c-11.8,0-35.5,2.8-44.4,11.4"/>
<path class="st2" d="M301.1,333.4"/>
<path class="st4" d="M219.7,187.9c-2.9-8.7,5.5-27.7,10-26.9c13.8,7,33.4-25.6,7.4-34.6l2.1-1.1c43,3.2,4.7,67.8-8.7,45.4
	c-17.4,15.8,16.2,41.6,0.9,50.8c0,0,2.4-8.7-0.7-13.8C230.8,207.9,221.2,194.6,219.7,187.9z"/>
<path class="st5" d="M218.4,223.9c-5,4.9-1.3,18.6-1.3,18.6C211,239.3,203.4,223.3,218.4,223.9z"/>
<path class="st2" d="M137.9,254.6"/>
<path class="st2" d="M147.2,217.1"/>
<polygon class="st1" points="319.2,389.3 297.4,375.9 325.1,376.5 330.6,381.8 327.6,388 "/>
<path class="st2" d="M325.1,376.5"/>
<line class="st2" x1="272.8" y1="339.9" x2="272.8" y2="328.8"/>
<path class="st2" d="M13.6,274.4c15.5-5.1,24.6-11.8,29.4-22.4c3.3-7.3,4.4-15.9,3.7-25.9c-0.4-5.4-1.3-11.1-2.7-17.2
	c-1.2-5.6-1.3-6.8-3.2-13"/>
</svg>
