<?xml version="1.0" encoding="utf-8"?>
<!-- Generator: Adobe Illustrator 24.0.1, SVG Export Plug-In . SVG Version: 6.00 Build 0)  -->
<svg version="1.1" id="Layer_1" xmlns="http://www.w3.org/2000/svg" xmlns:xlink="http://www.w3.org/1999/xlink" x="0px" y="0px"
	 viewBox="0 0 350 471.5" style="enable-background:new 0 0 350 471.5;" xml:space="preserve">
<style type="text/css">
	.st0{fill:none;}
	.st1{fill:#E1E8EB;}
	.st2{fill:#1E1E1E;stroke:#E1E8EB;stroke-miterlimit:10;}
	.st3{fill:none;stroke:#E1E8EB;stroke-miterlimit:10;}
	.st4{fill:url(#SVGID_1_);stroke:#E1E8EB;stroke-miterlimit:10;}
	.st5{fill:url(#SVGID_2_);stroke:#E1E8EB;stroke-miterlimit:10;}
	.st6{fill:url(#SVGID_3_);stroke:#E1E8EB;stroke-miterlimit:10;}
</style>
<pattern  y="471.5" width="12.1" height="12.1" patternUnits="userSpaceOnUse" id="New_Pattern" viewBox="1 -13.1 12.1 12.1" style="overflow:visible;">
	<g>
		<rect x="1" y="-13.1" class="st0" width="12.1" height="12.1"/>
		<g>
			<rect x="1" y="-13.1" class="st0" width="12.1" height="12.1"/>
			<circle class="st1" cx="13.2" cy="-10.1" r="1"/>
			<circle class="st1" cx="7.1" cy="-13.2" r="1"/>
			<circle class="st1" cx="1" cy="-10.1" r="1"/>
			<circle class="st1" cx="13.2" cy="-4.1" r="1"/>
			<circle class="st1" cx="7.1" cy="-7.1" r="1"/>
			<circle class="st1" cx="1" cy="-4.1" r="1"/>
			<circle class="st1" cx="7.1" cy="-1" r="1"/>
		</g>
	</g>
</pattern>
<title>avatar</title>
<polygon class="st2" points="89.9,0.5 115,1.7 140.8,11 160.7,28.6 172.7,54 179.7,79.8 179.7,86.8 184.1,103.5 187.3,123.7 
	187.3,140.1 187.3,159.7 185.3,180.2 180,200.6 176.5,217.9 174,227.7 165.1,240.7 154.5,249.2 139.9,254.8 120.3,256.2 100.4,251 
	86.1,243.9 70.3,234.9 57.7,223.8 50.1,211.8 40.1,192.7 33.4,173.7 28.4,158.5 22.3,144.8 18.3,134.2 11.2,103.2 9.7,84.8 
	9.7,57.3 14.4,40.3 28.1,22.5 49.5,9 71.7,2.5 "/>
<path class="st2" d="M142.9,325l-32,4.4l-27.2-3.1l-21.5-5.7l-16.7-8.8l-10.4-12.7l-11.3-12.6l-4.5-5.1l-5.8-7L36,264.1l12.9-12
	l2.3-4.4v-7.3c0-0.9-8.5-35.4-8.5-35.4l-3-13.2l9.8,19l8.1,13l12.6,11.1l30.2,16.1l19.2,5.3l20.3-1.5l14.6-5.6l10.5-8.5l5.6-7.3
	l3,29.8c0,0,4,4.9,4,6.2"/>
<polygon class="st2" points="35.3,179.2 34.3,184.4 28.9,185.6 22.9,185.6 18.9,181.6 14.8,176.4 8.2,162 4.4,147.2 2.8,129.5 
	6,121.3 12,117.8 14.5,117.8 18.3,134.2 28.4,158.5 "/>
<polyline class="st2" points="349.3,470.8 318.1,470.6 173.6,263.2 173,257.6 182.9,259.3 349.3,284.6 349.3,470.8 "/>
<polyline class="st2" points="349.4,362.5 349.3,471 0.5,471 0.5,276.7 13.6,274.4 45.5,311.8 62.2,320.6 83.7,326.3 110.9,329.4 
	142.9,325 "/>
<polyline class="st2" points="287.8,270.4 267.9,261.8 234.2,259 190.3,265.4 139.9,281.4 128.8,290 183.3,425.1 190.7,425.1 
	261.9,414.1 267,410 270.2,371.7 284.6,355.3 296.6,330.2 "/>
<polyline class="st2" points="349.4,306.5 349.4,338.3 349.4,377.9 339.1,377.9 325.5,374.3 297.4,375.9 296.6,375.9 289.9,361.3 
	279.6,347.8 283.8,334.8 292.6,331.6 "/>
<polyline class="st2" points="331.5,326.6 306.7,326.7 272.8,338.6 272.8,294.6 276.3,286 284.4,283 288.3,281.4 298.2,277.3 
	318.5,277.3 349.3,284.6 "/>
<path class="st3" d="M331.5,303.3c0,0-10.4-3-10.8-3s-23.4,2.3-23.4,2.3l-16.4,6.3l-8.1,3.6"/>
<path class="st3" d="M324,333.4"/>
<path class="st3" d="M272.8,343"/>
<path class="st2" d="M266.6,261.6V260l2.8-5.4c0,0,3.6-3.1,4-3.1s7-1,7-1l5.2,1.7l5.4,3.7l5.9,4.8l2.6,5.2l5,11.4h-6.2l-7.6,3
	l-2.8-9.9l-16.3-7.1L266.6,261.6z"/>
<path class="st2" d="M27.7,179.2l-1.2,2.4v3.6l1,2.8l2.1,3.1l2.4,1.4l2-0.4c0,0,1.3-0.8,1.4-0.8c0.2-0.7,0.3-1.4,0.3-2.1
	c0-0.2-0.3-2.8-0.3-2.8l-0.8-2.8l-0.2,1l-1.7,0.4l1.1,3l-1.6,1.2c0,0-1.3-1.2-1.5-1.4c-0.4-1.2-0.7-2.3-1-3.5c0,0,0.4-1.6,0.5-2
	l-0.4-2L27.7,179.2z"/>
<polyline class="st3" points="123.8,83.9 139,118.1 153.7,149.9 142,161.4 123.8,153.2 123.8,83.9 "/>
<path class="st3" d="M100.9,80.4l3.9,9.6l-23.4-3.2c0,0-16.1,1.2-17.6,1.5s-11.1,6.4-11.1,6.4l-8.2,8.8l-2.9,5.8l3.5-11.7l6.2-9.6
	l14.9-8l20.2-1.6L100.9,80.4z"/>
<path class="st3" d="M144.3,77.8l-3.8,9.9c3.3-1.6,10.8-5.7,11.4-6.1c1.6-1.2,7.2-3.1,9.1-4.1h7.9c2.2,0.5,4.3,1.5,6,2.9l4.1,4.7
	l-2.2-9.4l-8.8-5.6l-4.1-0.4l-4.2,0.4l-9.3,3.5L144.3,77.8z"/>
<path class="st1" d="M75.7,114.2l1.3,4.2c0,0,2,1.3,2.3,1.4c0.5,0.1,1.1,0.1,1.6,0.1l1.6-1.2c0.2-0.5,0.4-1.1,0.5-1.7l0.1-2.7
	c0-0.5-1.6-7.6-1.6-7.6c-0.3-0.7-0.7-1.3-1.1-1.9c-0.2-0.1-2.4-1.2-2.4-1.2l-1.9,0.4l-1.3,1.9l-0.1,2.4L75.7,114.2z"/>
<path class="st1" d="M150.6,106l1.3,3.9c0,0,1.9,1.2,2.2,1.3c0.5,0.1,1,0.1,1.6,0.1l1.5-1.1c0.2-0.5,0.4-1.1,0.5-1.6l0.1-2.5
	c0-0.4-1.5-7.2-1.5-7.2c-0.3-0.7-0.7-1.3-1.1-1.8c-0.2-0.1-2.3-1.1-2.3-1.1l-1.8,0.4l-1.2,1.8l-0.1,2.3L150.6,106z"/>
<polyline class="st3" points="58.9,113.1 63.1,105.8 71.2,100.3 79.2,98.7 90.8,101.2 96.7,104.9 "/>
<polyline class="st3" points="140.5,102.8 146.3,94.9 150.9,92.5 158.6,90.8 166,92.5 169.8,95.9 172.4,100.3 "/>
<polyline class="st3" points="166.8,177.8 154.8,182.8 141.7,187 128.8,188.6 114.2,191.9 104.4,191.8 "/>
<pattern  id="SVGID_1_" xlink:href="#New_Pattern" patternTransform="matrix(1 0 0 -1 2 -17037.4004)">
</pattern>
<polygon class="st4" points="14.5,117.8 47.7,176.6 78.9,185.9 88.6,217.5 96.7,213.1 104.8,227.1 135.5,227.1 143,213.5 
	156.4,224.9 165.7,220.1 167.8,199.6 176.6,190.9 187.3,159.7 185.3,180.2 180,200.6 176.5,217.9 174,227.7 165,240.7 154.5,249.2 
	139.9,254.8 119.6,256.3 100.4,251 86.1,243.9 70.2,234.9 57.6,223.8 39.8,191.8 28.4,158.5 18.3,134.2 "/>
<pattern  id="SVGID_2_" xlink:href="#New_Pattern" patternTransform="matrix(1 0 0 -1 2 -17037.4004)">
</pattern>
<path class="st5" d="M131.6,165.1l11.5,2.2l6.8-4.7l7.7,4l11,2l2.9,4c-3.9,0.9-18.1,1.3-20.4,1.7c-1.5,1.6-3.9,4.3-5.4,5.9
	l-11.1-2.5c-2.2,1.8-5,2.6-7.7,4.1c-4.5,1.7-8,2.1-12.5,3.8c-7.5,1.9-13.8,2.5-21.4,4.4c1.1-2.1,2-4.1,3-6.1
	c9.6-3.4,17.1-6.7,26.7-10.1L131.6,165.1z"/>
<pattern  id="SVGID_3_" xlink:href="#New_Pattern" patternTransform="matrix(1 0 0 -1 2 -17037.4004)">
</pattern>
<polygon class="st6" points="125.3,200.3 143,213.5 157.4,192.9 147.5,199.3 "/>
<path class="st3" d="M72.9,236.3"/>
<path class="st3" d="M86,209.1"/>
<path class="st3" d="M100.9,220.4"/>
<path class="st3" d="M82.7,241.5"/>
<path class="st3" d="M96.7,213.1"/>
<path class="st3" d="M96.7,249"/>
<path class="st3" d="M104.8,227.1"/>
<path class="st3" d="M110.5,253"/>
<path class="st3" d="M118.4,227.1"/>
<path class="st3" d="M125.3,256.2"/>
<path class="st3" d="M132.3,227.1"/>
<path class="st3" d="M160.7,244.3"/>
<path class="st3" d="M165.6,219.8"/>
<path class="st3" d="M150.5,250.8"/>
<path class="st3" d="M156.1,224.9"/>
<path class="st3" d="M170.6,233.4"/>
<path class="st3" d="M176.8,190.7"/>
<path class="st3" d="M141.1,211.7"/>
<path class="st3" d="M153.4,194.4"/>
<path class="st3" d="M160.1,175.8"/>
<path class="st3" d="M162.9,168.6"/>
<path class="st3" d="M152.4,177.4"/>
<path class="st3" d="M156.1,168.2"/>
<path class="st3" d="M143,180.7"/>
<path class="st3" d="M150.9,163.3"/>
<path class="st3" d="M137.3,178.2"/>
<path class="st3" d="M142.7,165.8"/>
<path class="st3" d="M127.9,181.6"/>
<path class="st3" d="M135,165.6"/>
<path class="st3" d="M118.3,184.2"/>
<path class="st3" d="M122.3,175"/>
<path class="st3" d="M109.9,186.4"/>
<path class="st3" d="M113.8,177.6"/>
<path class="st3" d="M100.9,188.2"/>
<path class="st3" d="M104.2,180.7"/>
<path class="st3" d="M76.3,115.7"/>
<path class="st3" d="M79.3,104.8"/>
<path class="st3" d="M79.3,120.2"/>
<path class="st3" d="M82.2,109.3"/>
<path class="st3" d="M149.5,104.8"/>
<path class="st3" d="M152.4,94"/>
<path class="st3" d="M156.9,102.8"/>
<path class="st3" d="M157.6,107.8"/>
<path class="st3" d="M149.8,98.1"/>
<path class="st3" d="M153.2,111.4"/>
<path class="st3" d="M156.1,100.5"/>
<path class="st3" d="M156.1,110.4"/>
<path class="st3" d="M150.3,104.1"/>
<path class="st3" d="M82.6,111.9"/>
<path class="st3" d="M77.3,103.9"/>
<path class="st3" d="M83,117.8"/>
<path class="st3" d="M74.9,105.9"/>
<path class="st3" d="M80.2,119.5"/>
<path class="st3" d="M75.3,112.1"/>
<polyline class="st3" points="333.5,349.6 305.3,351.9 289.7,360.9 "/>
<path class="st3" d="M301.1,333.4"/>
<path class="st2" d="M219.7,187.9c-0.8-5.1-0.4-10.3,1.2-15.3c3.4-10.4,8.8-11.6,8.8-11.6c2.4,2.8,22.4,0.2,19.8-24.3
	c-0.5-5-12.4-10.3-12.4-10.3l2.1-1.1c0.5,0.1,7.2,0.8,9.6,2c10,5,12,14.8,8.3,28.2c-4.4,15.9-17.4,20.7-23.2,19.6
	c-2.9-0.9-3.4-4.4-3.4-4.4s-11.1,8.8-1.1,26.7c2.5,4.4,6.8,10,6.1,15.5c-1.2,9.3-4.1,8.6-4.1,8.6s2.4-8.7-0.7-13.8
	C230.8,207.9,221.2,194.6,219.7,187.9z"/>
<path class="st2" d="M218.4,223.9c-5,4.9-1.3,18.6-1.3,18.6C211,239.3,203.4,223.3,218.4,223.9z"/>
<path class="st3" d="M137.9,254.6"/>
<path class="st3" d="M147.2,217.1"/>
<polygon class="st2" points="319.2,389.3 297.4,375.9 325.5,374.3 330.6,381.8 327.6,388 "/>
</svg>
