<svg id="Layer_1" data-name="Layer 1" xmlns="http://www.w3.org/2000/svg" viewBox="0 0 349.97 471.5"><defs><style>.cls-1{fill:none;}.cls-1,.cls-2,.cls-3,.cls-4{stroke:#000;stroke-miterlimit:10;}.cls-2{fill:#fff;}.cls-4{fill:#020202;}</style></defs><title>avatar</title><polygon class="cls-1" points="89.87 0.5 115.04 1.67 140.79 11.04 160.68 28.59 172.68 54.05 179.7 79.8 179.7 86.82 184.09 103.5 187.31 123.69 187.31 140.07 187.31 159.68 185.26 180.16 180 200.64 176.48 217.9 174.02 227.69 165.07 240.73 154.54 249.21 139.91 254.77 120.31 256.23 100.41 250.97 86.07 243.94 70.27 234.87 57.69 223.75 50.08 211.76 40.13 192.74 33.4 173.72 28.43 158.5 22.28 144.75 18.27 134.22 11.16 103.2 9.7 84.77 9.7 57.27 14.38 40.3 28.14 22.45 49.5 8.99 71.73 2.55 89.87 0.5"/><path class="cls-1" d="M135.9,328.87l-25.46,3.51-27.21-3.07L61.72,323.6l-16.67-8.77L34.66,302.1,23.39,289.52l-4.45-5.11-5.79-7,22.39-10.31,12.87-12,2.34-4.39v-7.32c0-.88-8.48-35.4-8.48-35.4l-3-13.21,9.76,19,8.12,13,12.58,11.12L99.91,254l19.16,5.26,20.34-1.46L154,252.21l10.53-8.49,5.55-7.28,3,29.78s4,4.87,4,6.19" transform="translate(0.5 -3)"/><polygon class="cls-1" points="35.33 179.18 34.28 184.4 28.87 185.57 22.87 185.57 18.92 181.62 14.82 176.35 8.24 162.02 4.43 147.24 2.75 129.54 6.04 121.34 11.97 117.83 14.52 117.83 18.27 134.22 28.43 158.5 35.33 179.18"/><polyline class="cls-1" points="177.64 269.41 173.59 263.22 173.03 257.6 182.92 259.32 203.51 263.48"/><polyline class="cls-1" points="349.41 362.51 349.28 471 0.5 471 0.5 276.71 13.65 274.44 45.55 311.83 62.22 320.61 83.73 326.31 110.94 329.38 142.9 324.98"/><polyline class="cls-1" points="287.8 270.42 267.93 261.76 234.18 259.02 190.27 265.41 139.88 281.37 128.79 290.04 183.34 425.06 190.73 425.06 261.92 414.12 267 410.01 270.24 371.69 284.56 355.27 296.6 330.24"/><polyline class="cls-1" points="349.41 301.94 349.41 339.04 349.41 362.51 344.3 365.98 335.28 372.23 321.53 376.72 311.01 376.72 305.14 374.07 297.05 368.1 296.33 365.98 291.75 360.89 292.61 342.04 309.44 331.47 313.55 336.06"/><polyline class="cls-1" points="302.34 342.04 323.95 330.51 323.25 325.85 306.71 326.7 272.83 338.57 272.83 294.63 276.26 286.01 284.43 283.04 288.29 281.35 298.17 277.32 318.47 277.32 338.34 283.04 344.73 290.52 349.51 302.19"/><path class="cls-1" d="M328.77,309.06s-8.17-5.93-8.6-5.93-23.36,2.27-23.36,2.27l-16.37,6.28-8.11,3.6" transform="translate(0.5 -3)"/><path class="cls-1" d="M323.45,336.35" transform="translate(0.5 -3)"/><path class="cls-1" d="M272.33,346" transform="translate(0.5 -3)"/><path class="cls-1" d="M266.08,264.65V263l2.76-5.37s3.58-3.11,4-3.11,7-1,7-1l5.16,1.69,5.44,3.68,5.87,4.8,2.58,5.23,5,11.38h-6.22l-7.58,3-2.79-9.93L271,266.29Z" transform="translate(0.5 -3)"/><path class="cls-2" d="M27.22,182.22,26,184.58v3.61L27,191l2.09,3.1,2.38,1.4,2-.44s1.35-.77,1.36-.82a10.77,10.77,0,0,0,.34-2.14c0-.24-.34-2.8-.34-2.8L34,186.45l-.19,1-1.71.37,1.13,3-1.57,1.2s-1.27-1.22-1.49-1.39a26.79,26.79,0,0,1-1-3.54s.42-1.62.45-2l-.4-2Z" transform="translate(0.5 -3)"/><polyline class="cls-1" points="123.82 83.89 139.03 118.13 153.66 149.95 141.96 161.43 123.82 153.24 123.82 83.89"/><path class="cls-1" d="M100.41,83.38,104.3,93,80.89,89.82S64.8,91,63.33,91.28s-11.12,6.44-11.12,6.44L44,106.5l-2.92,5.85,3.51-11.71L50.75,91l14.92-8,20.19-1.58Z" transform="translate(0.5 -3)"/><path class="cls-1" d="M143.84,80.78,140,90.69c3.33-1.62,10.77-5.67,11.42-6.14,1.6-1.17,7.23-3.08,9.07-4.1h7.9a13.6,13.6,0,0,1,6,2.93l4.08,4.68-2.19-9.36-8.78-5.56-4.05-.44-4.22.44-9.29,3.51Z" transform="translate(0.5 -3)"/><path class="cls-3" d="M75.19,117.21l1.34,4.15s2,1.28,2.28,1.38a11.31,11.31,0,0,0,1.64.08L82,121.65a6.07,6.07,0,0,0,.49-1.69l.14-2.66c0-.47-1.55-7.61-1.55-7.61a11,11,0,0,0-1.14-1.94c-.23-.09-2.37-1.15-2.37-1.15l-1.91.44-1.28,1.89-.13,2.43Z" transform="translate(0.5 -3)"/><path class="cls-4" d="M150.07,109l1.27,3.94s1.95,1.23,2.17,1.31a10.44,10.44,0,0,0,1.56.09l1.48-1.11a6,6,0,0,0,.46-1.62l.14-2.53c0-.45-1.47-7.24-1.47-7.24a10.77,10.77,0,0,0-1.1-1.85c-.22-.09-2.25-1.09-2.25-1.09l-1.81.42-1.22,1.8-.13,2.31Z" transform="translate(0.5 -3)"/><polyline class="cls-1" points="58.93 113.12 63.1 105.76 71.22 100.28 79.15 98.74 90.75 101.16 96.68 104.89"/><polyline class="cls-1" points="140.49 102.79 146.27 94.86 150.88 92.47 158.56 90.84 166.02 92.47 169.75 95.89 172.39 100.28"/><polyline class="cls-1" points="166.83 177.82 154.83 182.79 141.66 187.03 128.79 188.64 114.16 191.86 104.36 191.82"/><polyline class="cls-1" points="14.52 117.83 47.74 176.65 78.94 185.86 88.56 217.46 96.68 213.07 104.8 227.12 135.52 227.12 142.98 213.51 156.44 224.93 165.66 220.1 167.84 199.63 176.62 190.85 187.31 159.68"/><path class="cls-1" d="M131.07,168.09l10.53,1.17,7.76-3.66,6.73,6h12l2.93,4c-3.9.88-13.65,4.09-17.56,5-1.95-1.17-3.9-1.17-5.85-2.34-1.46,1.56-2.92,4.29-4.39,5.85l-5.15-2.5-3.92-1c-2.24,1.76-4.48,2.34-6.73,4.1-4.48,1.66-9,2.14-13.46,3.8-7.51,1.86-13.85,2.54-21.36,4.39,1.08-2.05,1-4.09,2-6.14,9.56-3.42,19.12-5.66,28.68-9.07Z" transform="translate(0.5 -3)"/><polygon class="cls-1" points="125.28 198.3 142.98 213.51 156.44 193.91 142.54 196.25 125.28 198.3"/><line class="cls-1" x1="25.97" y1="138.11" x2="23.53" y2="146.8"/><line class="cls-1" x1="31.34" y1="147.62" x2="28.43" y2="158.51"/><line class="cls-1" x1="37.49" y1="158.51" x2="32.34" y2="170.22"/><line class="cls-1" x1="44.11" y1="170.22" x2="36.92" y2="183.67"/><line class="cls-1" x1="50.73" y1="177.63" x2="40.13" y2="192.74"/><line class="cls-1" x1="78.94" y1="185.86" x2="56.07" y2="221.16"/><line class="cls-1" x1="82.21" y1="196.61" x2="63.05" y2="228.29"/><path class="cls-1" d="M72.41,239.28" transform="translate(0.5 -3)"/><path class="cls-1" d="M85.51,212.1" transform="translate(0.5 -3)"/><path class="cls-1" d="M100.41,223.4" transform="translate(0.5 -3)"/><path class="cls-1" d="M82.24,244.53" transform="translate(0.5 -3)"/><path class="cls-1" d="M96.18,216.07" transform="translate(0.5 -3)"/><path class="cls-1" d="M96.18,252" transform="translate(0.5 -3)"/><path class="cls-1" d="M104.3,230.12" transform="translate(0.5 -3)"/><path class="cls-1" d="M110,256" transform="translate(0.5 -3)"/><path class="cls-1" d="M117.9,230.12" transform="translate(0.5 -3)"/><path class="cls-1" d="M124.78,259.23" transform="translate(0.5 -3)"/><path class="cls-1" d="M131.8,230.12" transform="translate(0.5 -3)"/><path class="cls-1" d="M160.16,247.28" transform="translate(0.5 -3)"/><path class="cls-1" d="M165.05,222.81" transform="translate(0.5 -3)"/><path class="cls-1" d="M150,253.76" transform="translate(0.5 -3)"/><path class="cls-1" d="M155.63,227.85" transform="translate(0.5 -3)"/><path class="cls-1" d="M170.12,236.44" transform="translate(0.5 -3)"/><path class="cls-1" d="M176.28,193.69" transform="translate(0.5 -3)"/><path class="cls-1" d="M140.57,214.67" transform="translate(0.5 -3)"/><path class="cls-1" d="M152.91,197.42" transform="translate(0.5 -3)"/><line class="cls-1" x1="150.68" y1="194.88" x2="139.35" y2="210.58"/><line class="cls-1" x1="144.35" y1="195.95" x2="135.38" y2="206.89"/><line class="cls-1" x1="137.04" y1="196.9" x2="131.52" y2="202.93"/><line class="cls-1" x1="169.61" y1="169.99" x2="167.75" y2="173.55"/><line class="cls-1" x1="165.33" y1="168.56" x2="162.48" y2="174.67"/><path class="cls-1" d="M159.63,178.81" transform="translate(0.5 -3)"/><path class="cls-1" d="M162.45,171.6" transform="translate(0.5 -3)"/><line class="cls-1" x1="159.44" y1="168.6" x2="156.15" y2="176.65"/><path class="cls-1" d="M151.92,180.38" transform="translate(0.5 -3)"/><path class="cls-1" d="M155.65,171.21" transform="translate(0.5 -3)"/><line class="cls-1" x1="153.66" y1="165.99" x2="149.4" y2="175.81"/><path class="cls-1" d="M142.47,183.67" transform="translate(0.5 -3)"/><path class="cls-1" d="M142.91,183.67" transform="translate(0.5 -3)"/><path class="cls-1" d="M150.44,166.3" transform="translate(0.5 -3)"/><line class="cls-1" x1="147.17" y1="163.93" x2="140.45" y2="179.45"/><path class="cls-1" d="M136.83,181.22" transform="translate(0.5 -3)"/><path class="cls-1" d="M142.22,168.79" transform="translate(0.5 -3)"/><line class="cls-1" x1="138.74" y1="165.99" x2="133.35" y2="178.42"/><path class="cls-1" d="M127.41,184.62" transform="translate(0.5 -3)"/><path class="cls-1" d="M134.49,168.55" transform="translate(0.5 -3)"/><line class="cls-1" x1="129.91" y1="167.12" x2="122.96" y2="182.9"/><path class="cls-1" d="M117.78,187.24" transform="translate(0.5 -3)"/><path class="cls-1" d="M121.85,178" transform="translate(0.5 -3)"/><line class="cls-1" x1="118.16" y1="176.5" x2="114.22" y2="185.44"/><path class="cls-1" d="M109.37,189.45" transform="translate(0.5 -3)"/><path class="cls-1" d="M113.26,180.63" transform="translate(0.5 -3)"/><line class="cls-1" x1="108.78" y1="179.34" x2="105.25" y2="187.35"/><path class="cls-1" d="M100.41,191.24" transform="translate(0.5 -3)"/><path class="cls-1" d="M103.74,183.7" transform="translate(0.5 -3)"/><line class="cls-1" x1="99.58" y1="182.16" x2="96.55" y2="189.02"/><line class="cls-1" x1="59.16" y1="179.75" x2="44.96" y2="201.85"/><line class="cls-1" x1="69.84" y1="182.9" x2="50.62" y2="212.45"/><path class="cls-1" d="M75.85,118.72" transform="translate(0.5 -3)"/><path class="cls-1" d="M78.76,107.84" transform="translate(0.5 -3)"/><path class="cls-1" d="M78.76,123.23" transform="translate(0.5 -3)"/><path class="cls-1" d="M81.68,112.35" transform="translate(0.5 -3)"/><path class="cls-1" d="M149,107.84" transform="translate(0.5 -3)"/><path class="cls-1" d="M151.9,97" transform="translate(0.5 -3)"/><path class="cls-1" d="M156.44,105.79" transform="translate(0.5 -3)"/><path class="cls-1" d="M157.05,110.85" transform="translate(0.5 -3)"/><path class="cls-1" d="M149.3,101.1" transform="translate(0.5 -3)"/><path class="cls-1" d="M152.73,114.37" transform="translate(0.5 -3)"/><path class="cls-1" d="M155.65,103.49" transform="translate(0.5 -3)"/><path class="cls-1" d="M155.65,113.42" transform="translate(0.5 -3)"/><path class="cls-1" d="M149.77,107.14" transform="translate(0.5 -3)"/><path class="cls-1" d="M82.13,114.92" transform="translate(0.5 -3)"/><path class="cls-1" d="M76.77,106.91" transform="translate(0.5 -3)"/><path class="cls-1" d="M82.52,120.83" transform="translate(0.5 -3)"/><path class="cls-1" d="M74.38,108.93" transform="translate(0.5 -3)"/><path class="cls-1" d="M79.73,122.52" transform="translate(0.5 -3)"/><path class="cls-1" d="M74.76,115.08" transform="translate(0.5 -3)"/><polyline class="cls-1" points="336.71 349.8 312.08 362.87 296.33 365.98"/><path class="cls-1" d="M300.63,336.35" transform="translate(0.5 -3)"/><path class="cls-1" d="M219.22,190.9a33.37,33.37,0,0,1,1.24-15.26c3.38-10.4,8.78-11.55,8.78-11.55,2.37,2.79,22.45.24,19.78-24.28-.54-5-12.39-10.31-12.39-10.31l2.12-1.15c.47.1,7.17.75,9.65,2,10,5,12,14.76,8.32,28.24-4.4,15.91-17.38,20.66-23.24,19.6-2.85-.87-3.37-4.43-3.37-4.43s-11.09,8.83-1.06,26.71c2.46,4.38,6.8,10,6.08,15.54-1.21,9.29-4.08,8.63-4.08,8.63s2.39-8.67-.73-13.77C230.32,210.86,220.68,197.57,219.22,190.9Z" transform="translate(0.5 -3)"/><path class="cls-1" d="M217.9,226.9c-5,4.89-1.26,18.6-1.26,18.6C210.48,242.32,202.89,226.33,217.9,226.9Z" transform="translate(0.5 -3)"/><path class="cls-1" d="M137.38,257.62" transform="translate(0.5 -3)"/><path class="cls-1" d="M146.67,220.07" transform="translate(0.5 -3)"/><line class="cls-1" x1="86.33" y1="209.76" x2="70.92" y2="235.22"/><line class="cls-1" x1="97.41" y1="214.35" x2="81.27" y2="241.02"/><line class="cls-1" x1="104.8" y1="227.12" x2="92.67" y2="247.46"/><line class="cls-1" x1="118.4" y1="227.12" x2="103.67" y2="251.83"/><line class="cls-1" x1="131.31" y1="227.12" x2="114.91" y2="254.62"/><line class="cls-1" x1="149.06" y1="218.29" x2="126.72" y2="255.75"/><line class="cls-1" x1="156.44" y1="224.93" x2="139.91" y2="254.77"/><line class="cls-1" x1="181.61" y1="194.05" x2="151.2" y2="250.49"/><line class="cls-1" x1="176.36" y1="218.68" x2="164.05" y2="241.53"/><line class="cls-1" x1="174.8" y1="192.66" x2="167.05" y2="207.06"/><line class="cls-1" x1="185.81" y1="172.21" x2="177.95" y2="187.35"/><line class="cls-1" x1="21.15" y1="129.57" x2="19.21" y2="136.47"/></svg>