<?xml version="1.0" encoding="utf-8"?>
<!-- Generator: Adobe Illustrator 24.0.1, SVG Export Plug-In . SVG Version: 6.00 Build 0)  -->
<svg version="1.1" id="Layer_1" xmlns="http://www.w3.org/2000/svg" xmlns:xlink="http://www.w3.org/1999/xlink" x="0px" y="0px"
	 viewBox="0 0 70 95" style="enable-background:new 0 0 70 95;" xml:space="preserve">
<style type="text/css">
	.st0{fill:none;stroke:#E1E8EB;stroke-width:2;stroke-miterlimit:10;}
</style>
<title>figma</title>
<path id="path0_fill" class="st0" d="M20.6,90.7c7.9,0,14.4-6.4,14.4-14.4V61.9H20.6c-7.9,0-14.4,6.4-14.4,14.4S12.6,90.7,20.6,90.7
	L20.6,90.7z"/>
<path id="path1_fill" class="st0" d="M6.2,47.5c0-7.9,6.4-14.4,14.4-14.4H35v28.8H20.6C12.6,61.9,6.2,55.4,6.2,47.5z"/>
<path id="path1_fill-2" class="st0" d="M6.2,18.7c0-7.9,6.4-14.4,14.4-14.4H35v28.8H20.6C12.6,33.1,6.2,26.6,6.2,18.7z"/>
<path id="path2_fill" class="st0" d="M35,4.3h14.4c7.9,0,14.4,6.4,14.4,14.4s-6.4,14.4-14.4,14.4l0,0H35V4.3z"/>
<path id="path3_fill" class="st0" d="M63.8,47.5c0,7.9-6.4,14.4-14.4,14.4c-7.9,0-14.4-6.4-14.4-14.4c0-7.9,6.4-14.4,14.4-14.4l0,0
	C57.3,33.1,63.8,39.5,63.8,47.5z"/>
</svg>
