<svg id="Layer_1" data-name="Layer 1" xmlns="http://www.w3.org/2000/svg" viewBox="0 0 58.56 87.35"><defs><style>.cls-1{fill:none;stroke:#000;stroke-miterlimit:10;}</style></defs><title>figma</title><path id="path0_fill" data-name="path0 fill" class="cls-1" d="M31.61,89.17A14.39,14.39,0,0,0,46,74.78V60.39H31.61a14.39,14.39,0,1,0,0,28.78Z" transform="translate(-16.72 -2.33)"/><path id="path1_fill" data-name="path1 fill" class="cls-1" d="M17.22,46A14.4,14.4,0,0,1,31.61,31.61H46V60.39H31.61A14.4,14.4,0,0,1,17.22,46Z" transform="translate(-16.72 -2.33)"/><path id="path1_fill-2" data-name="path1 fill" class="cls-1" d="M17.22,17.22A14.39,14.39,0,0,1,31.61,2.83H46V31.61H31.61A14.4,14.4,0,0,1,17.22,17.22Z" transform="translate(-16.72 -2.33)"/><path id="path2_fill" data-name="path2 fill" class="cls-1" d="M46,2.83H60.39a14.39,14.39,0,1,1,0,28.78H46Z" transform="translate(-16.72 -2.33)"/><path id="path3_fill" data-name="path3 fill" class="cls-1" d="M74.78,46A14.39,14.39,0,1,1,60.39,31.61,14.4,14.4,0,0,1,74.78,46Z" transform="translate(-16.72 -2.33)"/></svg>