<?xml version="1.0" encoding="utf-8"?>
<!-- Generator: Adobe Illustrator 24.0.1, SVG Export Plug-In . SVG Version: 6.00 Build 0)  -->
<svg version="1.1" id="Layer_1" xmlns="http://www.w3.org/2000/svg" xmlns:xlink="http://www.w3.org/1999/xlink" x="0px" y="0px"
	 viewBox="0 0 58.6 87.3" style="enable-background:new 0 0 58.6 87.3;" xml:space="preserve">
<style type="text/css">
	.st0{fill:none;stroke:#E1E8EB;stroke-width:2;stroke-miterlimit:10;}
</style>
<title>figma</title>
<path id="path0_fill" class="st0" d="M14.9,86.8c7.9,0,14.4-6.4,14.4-14.4V58.1H14.9c-7.9,0-14.4,6.4-14.4,14.4S6.9,86.8,14.9,86.8
	C14.9,86.8,14.9,86.8,14.9,86.8z"/>
<path id="path1_fill" class="st0" d="M0.5,43.7c0-7.9,6.4-14.4,14.4-14.4h14.4v28.8H14.9C6.9,58.1,0.5,51.6,0.5,43.7z"/>
<path id="path1_fill-2" class="st0" d="M0.5,14.9c0-7.9,6.4-14.4,14.4-14.4h14.4v28.8H14.9C6.9,29.3,0.5,22.8,0.5,14.9z"/>
<path id="path2_fill" class="st0" d="M29.3,0.5h14.4c7.9,0,14.4,6.4,14.4,14.4s-6.4,14.4-14.4,14.4c0,0,0,0,0,0H29.3V0.5z"/>
<path id="path3_fill" class="st0" d="M58.1,43.7c0,7.9-6.4,14.4-14.4,14.4c-7.9,0-14.4-6.4-14.4-14.4c0-7.9,6.4-14.4,14.4-14.4
	c0,0,0,0,0,0C51.6,29.3,58.1,35.7,58.1,43.7z"/>
</svg>
