<svg id="Layer_1" data-name="Layer 1" xmlns="http://www.w3.org/2000/svg" viewBox="0 0 92.89 92.89"><defs><style>.cls-1{fill:none;stroke:#000;stroke-miterlimit:10;}</style></defs><title>git</title><path class="cls-1" d="M90.16,42,50,1.85a5.91,5.91,0,0,0-8.37,0h0l-8.32,8.33L43.9,20.75a7,7,0,0,1,8.9,9L63,39.89a7,7,0,0,1,7.28,11.63h0a7,7,0,0,1-11.5-7.66l-9.5-9.5v25a7,7,0,0,1,3.2,9.43,6.84,6.84,0,0,1-1.34,1.86,7,7,0,0,1-10,0h0a7.05,7.05,0,0,1,0-10h0a7,7,0,0,1,2.3-1.54V33.93a7.05,7.05,0,0,1-3.83-9.21v0L29.24,14.27,1.73,41.78a5.92,5.92,0,0,0,0,8.37L41.85,90.27a5.92,5.92,0,0,0,8.37,0L90.16,50.34a6,6,0,0,0,0-8.38" transform="translate(0.5 0.39)"/></svg>