<?xml version="1.0" encoding="utf-8"?>
<!-- Generator: Adobe Illustrator 24.0.1, SVG Export Plug-In . SVG Version: 6.00 Build 0)  -->
<svg version="1.1" id="Layer_1" xmlns="http://www.w3.org/2000/svg" xmlns:xlink="http://www.w3.org/1999/xlink" x="0px" y="0px"
	 viewBox="0 0 92.9 92.9" style="enable-background:new 0 0 92.9 92.9;" xml:space="preserve">
<style type="text/css">
	.st0{fill:none;stroke:#E1E8EB;stroke-width:2;stroke-miterlimit:10;}
</style>
<title>git</title>
<path class="st0" d="M90.7,42.4L50.5,2.2c-2.3-2.3-6-2.3-8.4,0c0,0,0,0,0,0l0,0l-8.3,8.3l10.6,10.6c3.6-1.3,7.6,0.6,8.9,4.3
	c0.5,1.5,0.5,3.2,0,4.7l10.2,10.1c3.6-1.4,7.7,0.5,9,4.1c1,2.6,0.3,5.6-1.7,7.5l0,0c-2.6,2.8-7.1,3-9.9,0.4c-2.2-2-2.9-5.3-1.6-8
	l-9.5-9.5v25c3.5,1.7,4.9,5.9,3.2,9.4c0,0,0,0,0,0.1c-0.3,0.7-0.8,1.3-1.3,1.9c-2.7,2.8-7.1,2.8-9.9,0.1c0,0-0.1-0.1-0.1-0.1l0,0
	c-2.8-2.7-2.8-7.2,0-10c0,0,0,0,0,0l0,0c0.7-0.7,1.4-1.2,2.3-1.5V34.3c-3.6-1.5-5.3-5.6-3.8-9.2c0,0,0,0,0,0l0,0L29.7,14.7L2.2,42.2
	c-2.3,2.3-2.3,6.1,0,8.4l40.1,40.1c2.3,2.3,6.1,2.3,8.4,0l39.9-39.9C92.9,48.4,92.9,44.7,90.7,42.4"/>
</svg>
