<?xml version="1.0" encoding="utf-8"?>
<!-- Generator: Adobe Illustrator 24.0.1, SVG Export Plug-In . SVG Version: 6.00 Build 0)  -->
<svg version="1.1" id="Layer_1" xmlns="http://www.w3.org/2000/svg" xmlns:xlink="http://www.w3.org/1999/xlink" x="0px" y="0px"
	 viewBox="0 0 513.2 513.2" style="enable-background:new 0 0 513.2 513.2;" xml:space="preserve">
<style type="text/css">
	.st0{fill:none;stroke:#E1E8EB;stroke-width:2;stroke-miterlimit:10;}
</style>
<title>javascript</title>
<rect x="0.5" y="0.5" class="st0" width="512.2" height="512.2"/>
<path class="st0" d="M233.8,232.4c0,0.1,0,114.1,0,143.3c0,3.5,1.4,21.6-2.8,32.8c-8.1,21.3-39.1,13.8-52.7-11.6l-37.5,23
	c16.3,38.3,54.1,49.6,97.1,39.8c31.5-8.1,40.1-31.1,43.4-61c1.3-11.3,0-166.2,0-166.3L233.8,232.4z"/>
<path class="st0" d="M456.6,265.6c-21.2,16-36.6,24-36.6,24c-7.1-9.3-14.1-22-35.9-20c0,0-9.8,1-15.1,11.8c-3.4,6.8-2.4,23.5,9.5,29
	c0,0,13.5,5.7,29.8,13.5c19.7,9.4,43.4,22.2,52.3,37.5c22.2,38.2,2.2,70.9-8.2,81.3c-29.6,29.6-120.6,29.1-144.6-27l37.1-22.7
	c5.7,6.4,15.2,21.9,29.8,26.4c15.2,4.7,35.8,2.2,44-9c3.6-4.9,7.4-12.7,2.7-21.6c-7.6-14.5-23.4-17.2-37.6-24.5
	c-21.8-11.1-35.7-11-50.5-33.5c-25.5-38.8-4.8-80,14.9-90.5c14.5-7.9,31-11.8,47.5-11C422.8,230.3,438.5,239.5,456.6,265.6z"/>
</svg>
