<svg id="Layer_1" data-name="Layer 1" xmlns="http://www.w3.org/2000/svg" viewBox="0 0 513.16 513.16"><defs><style>.cls-1,.cls-2{fill:none;stroke-miterlimit:10;}.cls-1{stroke:#000;}.cls-2{stroke:#020202;}</style></defs><title>javascript</title><rect class="cls-1" x="0.5" y="0.5" width="512.16" height="512.16"/><path class="cls-1" d="M274.25,371.83c0,.09,0,114.13,0,143.29,0,3.55,1.44,21.57-2.84,32.85-8.09,21.31-39.12,13.82-52.66-11.64l-37.5,23c16.3,38.33,54.07,49.63,97.08,39.8,31.45-8.06,40.11-31.13,43.42-61,1.26-11.33,0-166.21,0-166.34Z" transform="translate(-40.42 -139.42)"/><path class="cls-2" d="M497,405c-21.23,16-36.6,24-36.6,24-7.15-9.27-14.15-22-35.9-20,0,0-9.75,1-15.06,11.76-3.38,6.83-2.44,23.49,9.5,29,0,0,13.52,5.74,29.81,13.52,19.69,9.4,43.43,22.24,52.25,37.51,22.18,38.17,2.19,70.94-8.17,81.31-29.56,29.61-120.58,29.07-144.58-27l37.07-22.71c5.68,6.4,15.18,21.9,29.82,26.44,15.23,4.72,35.79,2.17,44-9,3.58-4.86,7.39-12.72,2.73-21.58-7.63-14.47-23.38-17.22-37.63-24.48-21.8-11.1-35.68-11-50.5-33.49-25.5-38.75-4.75-80,14.88-90.5a90.48,90.48,0,0,1,47.51-11C463.25,369.75,478.94,378.92,497,405Z" transform="translate(-40.42 -139.42)"/></svg>