<?xml version="1.0" encoding="utf-8"?>
<!-- Generator: Adobe Illustrator 24.0.1, SVG Export Plug-In . SVG Version: 6.00 Build 0)  -->
<svg version="1.1" id="Layer_1" xmlns="http://www.w3.org/2000/svg" xmlns:xlink="http://www.w3.org/1999/xlink" x="0px" y="0px"
	 viewBox="0 0 480.8 425.9" style="enable-background:new 0 0 480.8 425.9;" xml:space="preserve">
<style type="text/css">
	.st0{fill:none;stroke:#E1E8EB;stroke-width:2;stroke-miterlimit:10;}
</style>
<title>react</title>
<path class="st0" d="M103.8,42.1C89,265.8,329.8,475.7,370.7,402.2c26.9-48.2-6.5-166-59.7-249.7C226.7,19.9,117.7-39.7,103.8,42.1z
	"/>
<path class="st0" d="M317.5,6.6C116.2,104.8,53.8,418.3,137.8,417.4c55.1-0.6,140.7-88.1,186.8-175.9
	C397.7,102.4,395.3-22,317.5,6.6z"/>
<path class="st0" d="M454.6,175.6c-185.8-125.1-488-21.9-445,50.5c28.2,47.5,146.7,77.7,245.6,73.6
	C412,293.2,518.3,228.7,454.6,175.6z"/>
<ellipse class="st0" cx="239.4" cy="210.9" rx="44.2" ry="44.3"/>
</svg>
