<svg id="Layer_1" data-name="Layer 1" xmlns="http://www.w3.org/2000/svg" viewBox="0 0 480.81 425.9"><defs><style>.cls-1{fill:none;stroke:#020202;stroke-miterlimit:10;}</style></defs><title>react</title><path class="cls-1" d="M166.75,223.75C151.6,452.8,398.5,667.75,440.46,592.53c27.54-49.39-6.71-170-61.22-255.62C292.76,201.11,181,140,166.75,223.75Z" transform="translate(-65.43 -182.7)"/><path class="cls-1" d="M385.9,187.41C179.55,288,115.57,609,201.7,608.11,258.24,607.49,346,517.86,393.19,428,468.12,285.55,465.67,158.2,385.9,187.41Z" transform="translate(-65.43 -182.7)"/><path class="cls-1" d="M526.49,360.5C336,232.44,26.15,338.12,70.16,412.16,99.05,460.77,220.59,491.69,322,487.5,482.83,480.85,591.78,414.85,526.49,360.5Z" transform="translate(-65.43 -182.7)"/><circle class="cls-1" cx="240.4" cy="213.97" r="45.37"/></svg>