<?xml version="1.0" encoding="utf-8"?>
<!-- Generator: Adobe Illustrator 24.0.1, SVG Export Plug-In . SVG Version: 6.00 Build 0)  -->
<svg version="1.1" id="Layer_1" xmlns="http://www.w3.org/2000/svg" xmlns:xlink="http://www.w3.org/1999/xlink" x="0px" y="0px"
	 viewBox="0 0 100 100" style="enable-background:new 0 0 100 100;" xml:space="preserve">
<style type="text/css">
	.st0{fill:none;stroke:#E1E8EB;stroke-width:2;stroke-miterlimit:10;}
</style>
<title>react</title>
<path class="st0" d="M22.4,15.9c-3,45.5,46,88.2,54.3,73.2c5.5-9.8-1.3-33.8-12.1-50.8C47.4,11.3,25.2-0.8,22.4,15.9z"/>
<path class="st0" d="M65.9,8.6c-40.9,20-53.6,83.7-36.6,83.6c11.2-0.1,28.6-17.9,38-35.8C82.2,28.1,81.7,2.8,65.9,8.6z"/>
<path class="st0" d="M93.8,43C56,17.6-5.5,38.6,3.3,53.3c5.7,9.7,29.8,15.8,50,15C85.1,66.9,106.7,53.8,93.8,43z"/>
<ellipse class="st0" cx="50" cy="50.2" rx="9" ry="9"/>
</svg>
