<?xml version="1.0" encoding="utf-8"?>
<!-- Generator: Adobe Illustrator 24.0.1, SVG Export Plug-In . SVG Version: 6.00 Build 0)  -->
<svg version="1.1" id="Layer_1" xmlns="http://www.w3.org/2000/svg" xmlns:xlink="http://www.w3.org/1999/xlink" x="0px" y="0px"
	 viewBox="0 0 91 91" style="enable-background:new 0 0 91 91;" xml:space="preserve">
<style type="text/css">
	.st0{clip-path:url(#SVGID_2_);}
	.st1{fill:none;stroke:#E1E8EB;stroke-width:2;stroke-miterlimit:10;}
</style>
<g>
	<g>
		<defs>
			<rect id="SVGID_1_" width="91" height="91"/>
		</defs>
		<clipPath id="SVGID_2_">
			<use xlink:href="#SVGID_1_"  style="overflow:visible;"/>
		</clipPath>
		<g class="st0">
			<path class="st1" d="M62.5,17.3l24.8-6.5c0.4-0.1,0.9,0,1.3,0.1c0.4,0.2,0.7,0.4,1,0.8c0.3,0.3,0.4,0.8,0.4,1.2s-0.1,0.9-0.3,1.2
				L48,88.7c-0.2,0.3-0.5,0.6-0.8,0.8c-0.3,0.2-0.7,0.3-1.1,0.3c-0.4,0-0.8-0.1-1.1-0.3c-0.3-0.2-0.6-0.5-0.8-0.8L1.5,14.2
				c-0.2-0.4-0.3-0.8-0.3-1.2s0.2-0.8,0.4-1.2s0.6-0.6,1-0.8s0.8-0.2,1.3-0.1L33.3,16"/>
			<path class="st1" d="M65.5,1L34.6,7c-0.2,0-0.5,0.2-0.6,0.4c-0.2,0.2-0.3,0.4-0.3,0.7l-1.9,32.1c0,0.2,0,0.4,0.1,0.5
				c0.1,0.2,0.2,0.3,0.3,0.4c0.1,0.1,0.3,0.2,0.5,0.2s0.4,0,0.5,0l8.6-2c0.2,0,0.4,0,0.6,0c0.2,0.1,0.4,0.1,0.5,0.3
				c0.1,0.1,0.2,0.3,0.3,0.5s0.1,0.4,0,0.6l-2.6,12.5c0,0.2,0,0.4,0,0.6c0.1,0.2,0.2,0.4,0.3,0.5s0.3,0.2,0.5,0.3c0.2,0,0.4,0,0.6,0
				l5.3-1.6c0.2-0.1,0.4-0.1,0.6,0c0.2,0,0.4,0.1,0.5,0.3c0.1,0.1,0.3,0.3,0.3,0.5c0.1,0.2,0.1,0.4,0,0.6L44.6,74
				c-0.1,0.3,0,0.5,0.1,0.8c0.1,0.2,0.3,0.4,0.6,0.5c0.2,0.1,0.5,0.1,0.8,0s0.5-0.2,0.6-0.5l0.5-0.7l25.2-50.2
				c0.1-0.2,0.1-0.4,0.1-0.6s-0.1-0.4-0.2-0.6s-0.3-0.3-0.5-0.4s-0.4-0.1-0.6-0.1l-8.9,1.7c-0.2,0-0.4,0-0.6,0
				c-0.2-0.1-0.3-0.2-0.5-0.3c-0.1-0.1-0.2-0.3-0.3-0.5c0-0.2,0-0.4,0-0.6l5.8-20c0.1-0.2,0.1-0.4,0-0.6c0-0.2-0.1-0.4-0.3-0.5
				c-0.1-0.1-0.3-0.3-0.5-0.3C65.9,1,65.7,1,65.5,1L65.5,1z"/>
		</g>
	</g>
</g>
</svg>
